<?xml version="1.0" encoding="iso-8859-1"?>
<!-- Generator: Adobe Illustrator 16.0.0, SVG Export Plug-In . SVG Version: 6.00 Build 0)  -->
<!DOCTYPE svg PUBLIC "-//W3C//DTD SVG 1.1//EN" "http://www.w3.org/Graphics/SVG/1.1/DTD/svg11.dtd">
<svg version="1.1" id="Capa_1" xmlns="http://www.w3.org/2000/svg" xmlns:xlink="http://www.w3.org/1999/xlink" x="0px" y="0px"
	 width="587.909px" height="587.909px" viewBox="0 0 587.909 587.909" style="enable-background:new 0 0 587.909 587.909;"
	 xml:space="preserve">
<g>
	<g>
		<g>
			<path d="M210.604,460.299c10.876,10.205,25.07,15.824,39.965,15.824c14.448,0,28.33-5.404,39.086-15.216l135.887-123.952
				c12.048-10.99,18.959-26.646,18.959-42.954c0-16.308-6.91-31.964-18.959-42.955L289.656,127.095
				c-10.758-9.812-24.638-15.216-39.086-15.216c-14.896,0-29.089,5.619-39.965,15.823c-5.68,5.329-10.155,11.629-13.3,18.727
				c-3.298,7.442-4.97,15.389-4.97,23.62v247.904c0,8.231,1.672,16.179,4.971,23.621
				C200.45,448.671,204.924,454.971,210.604,460.299z M235.174,170.049c0-9.17,7.511-15.33,15.396-15.33
				c3.546,0,7.168,1.247,10.216,4.026l135.887,123.952c6.651,6.068,6.651,16.54,0,22.607L260.785,429.257
				c-3.048,2.78-6.669,4.026-10.216,4.026c-7.884,0-15.396-6.161-15.396-15.33L235.174,170.049L235.174,170.049z"/>
			<path d="M250.569,476.623c-15.024,0-29.339-5.668-40.308-15.96c-5.729-5.374-10.242-11.729-13.414-18.888
				c-3.327-7.506-5.014-15.521-5.014-23.823V170.048c0-8.302,1.687-16.316,5.013-23.822c3.172-7.159,7.686-13.514,13.415-18.889
				c10.969-10.291,25.284-15.958,40.308-15.958c14.572,0,28.573,5.45,39.423,15.347l135.887,123.951
				c12.152,11.085,19.122,26.876,19.122,43.325c0,16.447-6.97,32.238-19.122,43.323L289.992,461.276
				C279.143,471.173,265.142,476.623,250.569,476.623z M250.569,112.378c-14.769,0-28.84,5.571-39.623,15.688
				c-5.631,5.283-10.067,11.529-13.186,18.564c-3.269,7.377-4.927,15.256-4.927,23.417v247.904c0,8.161,1.658,16.04,4.928,23.419
				c3.118,7.035,7.553,13.28,13.185,18.563c10.783,10.117,24.854,15.688,39.623,15.688c14.323,0,28.084-5.357,38.749-15.085
				l135.887-123.952c11.945-10.896,18.796-26.418,18.796-42.585c0-16.167-6.851-31.689-18.796-42.585L289.319,127.464
				C278.653,117.736,264.892,112.378,250.569,112.378z M250.569,433.783c-9.818,0-15.896-8.217-15.896-15.83V170.049
				c0-7.613,6.078-15.83,15.896-15.83c3.922,0,7.571,1.438,10.553,4.157l135.887,123.952c3.274,2.987,5.151,7.242,5.151,11.674
				c0,4.432-1.878,8.686-5.151,11.672L261.122,429.626C258.141,432.346,254.491,433.783,250.569,433.783z M235.673,170.049v247.904
				c0,7.132,5.695,14.83,14.896,14.83c3.669,0,7.085-1.347,9.879-3.896l135.888-123.952c3.066-2.798,4.825-6.783,4.825-10.934
				c0-4.152-1.759-8.138-4.825-10.936L260.448,159.115c-2.794-2.549-6.21-3.896-9.879-3.896
				C243.248,155.219,235.674,160.766,235.673,170.049L235.673,170.049z"/>
		</g>
		<g>
			<path d="M86.452,501.459c26.937,26.937,58.315,48.089,93.265,62.871c36.207,15.314,74.642,23.079,114.239,23.079
				s78.033-7.766,114.239-23.079c34.95-14.782,66.328-35.935,93.265-62.871s48.09-58.316,62.872-93.266
				c15.314-36.206,23.078-74.642,23.078-114.239s-7.765-78.033-23.078-114.239c-14.782-34.949-35.936-66.328-62.872-93.264
				s-58.314-48.091-93.265-62.873C371.988,8.264,333.552,0.5,293.955,0.5c-39.597,0-78.032,7.765-114.239,23.078
				c-34.95,14.782-66.328,35.937-93.265,62.873c-26.937,26.937-48.09,58.315-62.873,93.265C8.265,215.923,0.5,254.358,0.5,293.955
				c0,39.598,7.765,78.032,23.079,114.239C38.361,443.144,59.515,474.522,86.452,501.459z M293.955,43.34
				c138.411,0,250.615,112.204,250.615,250.615c0,138.41-112.204,250.614-250.615,250.614S43.34,432.365,43.34,293.955
				C43.34,155.544,155.544,43.34,293.955,43.34z"/>
			<path d="M293.955,587.909c-39.665,0-78.166-7.778-114.434-23.118c-35.01-14.808-66.442-35.997-93.423-62.979
				c-26.982-26.982-48.172-58.414-62.979-93.424C7.779,372.119,0,333.618,0,293.955c0-39.665,7.778-78.166,23.118-114.434
				c14.808-35.009,35.997-66.442,62.979-93.424c26.984-26.984,58.416-48.173,93.423-62.98C215.79,7.778,254.291,0,293.955,0
				c39.666,0,78.167,7.778,114.433,23.118c35.008,14.806,66.439,35.996,93.424,62.98c26.982,26.982,48.172,58.415,62.979,93.423
				c15.339,36.269,23.117,74.77,23.117,114.434c0,39.667-7.778,78.167-23.117,114.433c-14.809,35.011-35.997,66.443-62.979,93.425
				c-26.981,26.982-58.414,48.171-93.424,62.979C372.119,580.131,333.618,587.909,293.955,587.909z M293.955,1
				c-39.529,0-77.899,7.751-114.044,23.039c-34.888,14.756-66.213,35.874-93.106,62.766c-26.891,26.891-48.008,58.216-62.766,93.106
				C8.752,216.055,1,254.425,1,293.955C1,333.483,8.752,371.854,24.04,408c14.757,34.89,35.875,66.215,62.766,93.105
				c26.89,26.89,58.215,48.007,93.106,62.764c36.144,15.288,74.514,23.04,114.044,23.04c39.529,0,77.898-7.752,114.044-23.04
				c34.89-14.757,66.215-35.873,93.105-62.764s48.008-58.216,62.765-93.106c15.288-36.143,23.039-74.512,23.039-114.044
				c0-39.53-7.751-77.9-23.039-114.044c-14.757-34.889-35.874-66.214-62.765-93.105C474.212,59.912,442.887,38.794,408,24.039
				C371.856,8.751,333.486,1,293.955,1z M293.955,545.069c-67.075,0-130.136-26.12-177.565-73.55S42.84,361.03,42.84,293.955
				s26.121-130.136,73.55-177.565s110.49-73.55,177.565-73.55c67.075,0,130.135,26.121,177.565,73.55s73.55,110.49,73.55,177.565
				S518.95,424.09,471.52,471.52S361.03,545.069,293.955,545.069z M293.955,43.84c-66.808,0-129.617,26.017-176.858,73.257
				c-47.24,47.241-73.257,110.05-73.257,176.858c0,66.808,26.017,129.617,73.257,176.857c47.241,47.24,110.05,73.257,176.858,73.257
				s129.618-26.017,176.858-73.257s73.257-110.05,73.257-176.857c0-66.808-26.017-129.617-73.257-176.858
				C423.573,69.857,360.763,43.84,293.955,43.84z"/>
		</g>
	</g>
</g>
<g>
</g>
<g>
</g>
<g>
</g>
<g>
</g>
<g>
</g>
<g>
</g>
<g>
</g>
<g>
</g>
<g>
</g>
<g>
</g>
<g>
</g>
<g>
</g>
<g>
</g>
<g>
</g>
<g>
</g>
</svg>
